<?xml version="1.0" standalone="no"?>
<!DOCTYPE svg PUBLIC "-//W3C//DTD SVG 20010904//EN"
 "http://www.w3.org/TR/2001/REC-SVG-20010904/DTD/svg10.dtd">
<svg version="1.0" xmlns="http://www.w3.org/2000/svg"
 width="317.000000pt" height="317.000000pt" viewBox="0 0 317.000000 317.000000"
 preserveAspectRatio="xMidYMid meet">
<metadata>
Created by potrace 1.14, written by Peter Selinger 2001-2017
</metadata>
<g transform="translate(0.000000,317.000000) scale(0.100000,-0.100000)"
fill="#000000" stroke="none">
<path d="M0 1585 l0 -1585 1585 0 1585 0 0 1585 0 1585 -1585 0 -1585 0 0
-1585z m1307 593 l-54 -73 -112 -3 -111 -3 0 -344 c0 -190 2 -345 3 -345 2 0
141 189 308 420 l304 419 338 1 c185 0 337 -2 337 -5 0 -2 -106 -150 -235
-327 -129 -178 -235 -326 -235 -329 0 -4 103 -148 228 -321 126 -173 232 -320
236 -327 5 -8 -79 -11 -331 -11 l-338 0 -118 161 -117 160 49 64 48 64 109
-149 108 -150 149 0 149 0 -18 28 c-10 15 -88 124 -174 242 -86 118 -160 221
-164 228 -5 8 58 103 173 261 100 137 181 252 181 255 0 3 -66 6 -147 6 l-148
-1 -410 -566 c-225 -311 -415 -573 -422 -582 -10 -13 -12 122 -13 642 l0 657
240 0 240 0 -53 -72z"/>
</g>
</svg>
